<svg xmlns="http://www.w3.org/2000/svg" xmlns:xlink="http://www.w3.org/1999/xlink" width="422" zoomAndPan="magnify" viewBox="0 0 316.5 220.499993" height="294" preserveAspectRatio="xMidYMid meet" version="1.0"><defs><g/><clipPath id="ad68bbb85f"><path d="M 0.109375 65.460938 L 70.449219 65.460938 L 70.449219 154.457031 L 0.109375 154.457031 Z M 0.109375 65.460938 " clip-rule="nonzero"/></clipPath></defs><g clip-path="url(#ad68bbb85f)"><path fill="#922b21" d="M 24.464844 130.085938 C 25.640625 130.941406 26.40625 132.296875 26.40625 133.8125 C 26.40625 136.324219 24.375 138.359375 21.914062 138.359375 C 19.398438 138.359375 17.367188 136.324219 17.367188 133.8125 C 17.367188 132.277344 18.132812 130.921875 19.34375 130.085938 L 19.34375 104.425781 C 19.34375 103.035156 20.46875 101.855469 21.914062 101.855469 C 23.304688 101.855469 24.480469 103.035156 24.480469 104.425781 L 24.480469 130.085938 Z M 51.015625 129.90625 C 52.371094 130.707031 53.261719 132.152344 53.261719 133.828125 C 53.261719 136.34375 51.226562 138.375 48.769531 138.375 C 46.253906 138.375 44.21875 136.34375 44.21875 133.828125 C 44.21875 132.4375 44.84375 131.171875 45.878906 130.316406 L 45.878906 104.425781 C 45.878906 103.035156 47.003906 101.855469 48.445312 101.855469 C 49.835938 101.855469 51.015625 103.035156 51.015625 104.425781 Z M 35.304688 65.410156 C 45.023438 65.410156 53.851562 69.332031 60.199219 75.714844 C 66.546875 82.0625 70.503906 90.890625 70.503906 100.609375 C 70.503906 110.289062 66.546875 119.101562 60.199219 125.449219 C 58.664062 126.980469 57.007812 128.371094 55.203125 129.636719 L 55.203125 124.378906 C 55.882812 123.789062 56.558594 123.164062 57.238281 122.488281 C 62.820312 116.90625 66.332031 109.167969 66.332031 100.609375 C 66.332031 92.011719 62.820312 84.273438 57.238281 78.691406 C 51.621094 73.074219 43.863281 69.597656 35.324219 69.597656 C 26.78125 69.597656 19.023438 73.058594 13.441406 78.691406 C 7.824219 84.273438 4.347656 92.011719 4.347656 100.609375 C 4.347656 109.167969 7.808594 116.90625 13.441406 122.488281 C 13.976562 123.074219 14.566406 123.609375 15.15625 124.109375 L 15.15625 129.425781 C 13.496094 128.246094 11.910156 126.945312 10.429688 125.464844 C 4.082031 119.101562 0.160156 110.273438 0.160156 100.609375 C 0.160156 90.890625 4.082031 82.0625 10.410156 75.714844 C 16.8125 69.332031 25.585938 65.410156 35.304688 65.410156 Z M 40.617188 138.945312 L 40.617188 105.066406 C 40.617188 102.089844 38.140625 99.628906 35.179688 99.628906 C 32.21875 99.628906 29.742188 102.105469 29.742188 105.066406 L 29.742188 138.964844 C 27.707031 140.535156 26.460938 143.011719 26.460938 145.8125 C 26.460938 150.679688 30.382812 154.585938 35.199219 154.585938 C 40.011719 154.585938 43.933594 150.660156 43.933594 145.8125 C 43.898438 142.996094 42.597656 140.535156 40.617188 138.945312 Z M 26.761719 98.664062 C 28.832031 96.328125 31.84375 94.832031 35.179688 94.832031 C 38.515625 94.832031 41.527344 96.3125 43.542969 98.664062 C 44.933594 97.664062 46.609375 97.09375 48.445312 97.09375 C 48.5 97.09375 48.589844 97.09375 48.625 97.09375 L 35.179688 74.628906 L 21.679688 97.078125 C 21.769531 97.078125 21.824219 97.078125 21.914062 97.078125 C 23.695312 97.09375 25.40625 97.683594 26.761719 98.664062 Z M 26.761719 98.664062 " fill-opacity="1" fill-rule="nonzero"/></g><g fill="#302616" fill-opacity="1"><g transform="translate(82.686949, 118.131861)"><g><path d="M 5.609375 0 L 1.578125 0 L 1.578125 -15.84375 L 5.609375 -15.84375 Z M 5.609375 0 "/></g></g></g><g fill="#302616" fill-opacity="1"><g transform="translate(97.099869, 118.131861)"><g><path d="M 16.203125 0 L 12.640625 0 L 5.359375 -9.75 L 5.359375 0 L 1.578125 0 L 1.578125 -15.84375 L 5.140625 -15.84375 L 12.4375 -6.0625 L 12.4375 -15.84375 L 16.203125 -15.84375 Z M 16.203125 0 "/></g></g></g><g fill="#302616" fill-opacity="1"><g transform="translate(122.10188, 118.131861)"><g><path d="M 7.671875 -16.015625 C 10.035156 -16.015625 12.117188 -15.425781 13.921875 -14.25 L 12.40625 -11.109375 C 11.570312 -11.585938 10.675781 -11.984375 9.71875 -12.296875 C 8.769531 -12.609375 7.972656 -12.765625 7.328125 -12.765625 C 6.171875 -12.765625 5.59375 -12.378906 5.59375 -11.609375 C 5.59375 -11.109375 5.878906 -10.707031 6.453125 -10.40625 C 7.023438 -10.101562 7.722656 -9.84375 8.546875 -9.625 C 9.367188 -9.40625 10.1875 -9.140625 11 -8.828125 C 11.820312 -8.523438 12.519531 -8.023438 13.09375 -7.328125 C 13.664062 -6.640625 13.953125 -5.765625 13.953125 -4.703125 C 13.953125 -3.179688 13.359375 -1.992188 12.171875 -1.140625 C 10.984375 -0.285156 9.46875 0.140625 7.625 0.140625 C 6.3125 0.140625 5.015625 -0.0820312 3.734375 -0.53125 C 2.453125 -0.988281 1.335938 -1.609375 0.390625 -2.390625 L 1.953125 -5.5 C 2.742188 -4.800781 3.679688 -4.226562 4.765625 -3.78125 C 5.859375 -3.34375 6.828125 -3.125 7.671875 -3.125 C 8.316406 -3.125 8.820312 -3.238281 9.1875 -3.46875 C 9.550781 -3.707031 9.734375 -4.050781 9.734375 -4.5 C 9.734375 -4.9375 9.523438 -5.300781 9.109375 -5.59375 C 8.691406 -5.894531 8.171875 -6.113281 7.546875 -6.25 C 6.929688 -6.394531 6.257812 -6.585938 5.53125 -6.828125 C 4.8125 -7.066406 4.144531 -7.328125 3.53125 -7.609375 C 2.914062 -7.898438 2.398438 -8.359375 1.984375 -8.984375 C 1.566406 -9.617188 1.359375 -10.375 1.359375 -11.25 C 1.359375 -12.695312 1.929688 -13.851562 3.078125 -14.71875 C 4.234375 -15.582031 5.765625 -16.015625 7.671875 -16.015625 Z M 7.671875 -16.015625 "/></g></g></g><g fill="#302616" fill-opacity="1"><g transform="translate(143.890963, 118.131861)"><g><path d="M 1.578125 -15.84375 L 8.484375 -15.84375 C 10.503906 -15.84375 12.070312 -15.363281 13.1875 -14.40625 C 14.300781 -13.445312 14.859375 -12.082031 14.859375 -10.3125 C 14.859375 -8.457031 14.300781 -7.015625 13.1875 -5.984375 C 12.070312 -4.960938 10.503906 -4.453125 8.484375 -4.453125 L 5.609375 -4.453125 L 5.609375 0 L 1.578125 0 Z M 5.609375 -12.671875 L 5.609375 -7.625 L 8.28125 -7.625 C 9.164062 -7.625 9.847656 -7.84375 10.328125 -8.28125 C 10.816406 -8.71875 11.0625 -9.351562 11.0625 -10.1875 C 11.0625 -11 10.816406 -11.613281 10.328125 -12.03125 C 9.847656 -12.457031 9.164062 -12.671875 8.28125 -12.671875 Z M 5.609375 -12.671875 "/></g></g></g><g fill="#302616" fill-opacity="1"><g transform="translate(166.494585, 118.131861)"><g><path d="M 5.609375 0 L 1.578125 0 L 1.578125 -15.84375 L 5.609375 -15.84375 Z M 5.609375 0 "/></g></g></g><g fill="#302616" fill-opacity="1"><g transform="translate(180.90751, 118.131861)"><g><path d="M 5.609375 -3.375 L 12.328125 -3.375 L 12.328125 0 L 1.578125 0 L 1.578125 -15.84375 L 5.609375 -15.84375 Z M 5.609375 -3.375 "/></g></g></g><g fill="#302616" fill-opacity="1"><g transform="translate(200.795994, 118.131861)"><g><path d="M 9.09375 -15.96875 C 11.550781 -15.96875 13.59375 -15.203125 15.21875 -13.671875 C 16.851562 -12.140625 17.671875 -10.226562 17.671875 -7.9375 C 17.671875 -5.632812 16.851562 -3.703125 15.21875 -2.140625 C 13.582031 -0.585938 11.539062 0.1875 9.09375 0.1875 C 6.65625 0.1875 4.617188 -0.582031 2.984375 -2.125 C 1.359375 -3.675781 0.546875 -5.613281 0.546875 -7.9375 C 0.546875 -10.25 1.359375 -12.164062 2.984375 -13.6875 C 4.617188 -15.207031 6.65625 -15.96875 9.09375 -15.96875 Z M 9.140625 -12.609375 C 7.898438 -12.609375 6.84375 -12.15625 5.96875 -11.25 C 5.09375 -10.351562 4.65625 -9.238281 4.65625 -7.90625 C 4.65625 -6.582031 5.097656 -5.460938 5.984375 -4.546875 C 6.867188 -3.640625 7.921875 -3.1875 9.140625 -3.1875 C 10.359375 -3.1875 11.394531 -3.640625 12.25 -4.546875 C 13.101562 -5.460938 13.53125 -6.582031 13.53125 -7.90625 C 13.53125 -9.238281 13.101562 -10.351562 12.25 -11.25 C 11.394531 -12.15625 10.359375 -12.609375 9.140625 -12.609375 Z M 9.140625 -12.609375 "/></g></g></g><g fill="#302616" fill-opacity="1"><g transform="translate(226.227899, 118.131861)"><g><path d="M 12.109375 -8.046875 L 15.59375 -8.046875 L 15.59375 -1.875 C 14.726562 -1.269531 13.6875 -0.773438 12.46875 -0.390625 C 11.257812 -0.00390625 10.101562 0.1875 9 0.1875 C 6.59375 0.1875 4.582031 -0.582031 2.96875 -2.125 C 1.351562 -3.675781 0.546875 -5.609375 0.546875 -7.921875 C 0.546875 -10.210938 1.375 -12.125 3.03125 -13.65625 C 4.6875 -15.195312 6.769531 -15.96875 9.28125 -15.96875 C 10.457031 -15.96875 11.625 -15.753906 12.78125 -15.328125 C 13.945312 -14.910156 14.9375 -14.34375 15.75 -13.625 L 13.484375 -10.875 C 12.910156 -11.40625 12.242188 -11.828125 11.484375 -12.140625 C 10.734375 -12.453125 9.988281 -12.609375 9.25 -12.609375 C 7.957031 -12.609375 6.867188 -12.15625 5.984375 -11.25 C 5.097656 -10.351562 4.65625 -9.242188 4.65625 -7.921875 C 4.65625 -6.578125 5.097656 -5.453125 5.984375 -4.546875 C 6.878906 -3.640625 7.984375 -3.1875 9.296875 -3.1875 C 10.140625 -3.1875 11.078125 -3.441406 12.109375 -3.953125 Z M 12.109375 -8.046875 "/></g></g></g><g fill="#302616" fill-opacity="1"><g transform="translate(250.256971, 118.131861)"><g><path d="M 13.984375 -12.671875 L 5.609375 -12.671875 L 5.609375 -9.53125 L 13.171875 -9.53125 L 13.171875 -6.359375 L 5.609375 -6.359375 L 5.609375 -3.171875 L 14.234375 -3.171875 L 14.234375 0 L 1.578125 0 L 1.578125 -15.84375 L 13.984375 -15.84375 Z M 13.984375 -12.671875 "/></g></g></g><g fill="#302616" fill-opacity="1"><g transform="translate(272.724829, 118.131861)"><g><path d="M 11.125 0 L 8.78125 -4.453125 L 5.609375 -4.453125 L 5.609375 0 L 1.578125 0 L 1.578125 -15.84375 L 8.671875 -15.84375 C 10.765625 -15.84375 12.382812 -15.363281 13.53125 -14.40625 C 14.675781 -13.445312 15.25 -12.082031 15.25 -10.3125 C 15.25 -7.875 14.289062 -6.175781 12.375 -5.21875 L 15.703125 0 Z M 5.609375 -7.625 L 8.671875 -7.625 C 9.546875 -7.625 10.222656 -7.84375 10.703125 -8.28125 C 11.179688 -8.71875 11.421875 -9.351562 11.421875 -10.1875 C 11.421875 -11 11.179688 -11.613281 10.703125 -12.03125 C 10.222656 -12.457031 9.546875 -12.671875 8.671875 -12.671875 L 5.609375 -12.671875 Z M 5.609375 -7.625 "/></g></g></g></svg>