<svg xmlns="http://www.w3.org/2000/svg" xmlns:xlink="http://www.w3.org/1999/xlink" width="1440" zoomAndPan="magnify" viewBox="0 0 1080 262.499992" height="350" preserveAspectRatio="xMidYMid meet" version="1.0"><defs><g/><clipPath id="a8022b0f04"><path d="M 107.769531 0 L 315.871094 0 L 315.871094 262 L 107.769531 262 Z M 107.769531 0 " clip-rule="nonzero"/></clipPath></defs><g clip-path="url(#a8022b0f04)"><path fill="#922b21" d="M 179.601562 190.597656 C 183.074219 193.121094 185.335938 197.117188 185.335938 201.585938 C 185.335938 209.003906 179.339844 214.996094 172.082031 214.996094 C 164.667969 214.996094 158.671875 209.003906 158.671875 201.585938 C 158.671875 197.066406 160.933594 193.066406 164.507812 190.597656 L 164.507812 114.917969 C 164.507812 110.816406 167.824219 107.34375 172.082031 107.34375 C 176.183594 107.34375 179.65625 110.816406 179.65625 114.917969 L 179.65625 190.597656 Z M 257.910156 190.070312 C 261.90625 192.4375 264.539062 196.695312 264.539062 201.640625 C 264.539062 209.054688 258.542969 215.050781 251.285156 215.050781 C 243.871094 215.050781 237.875 209.054688 237.875 201.640625 C 237.875 197.539062 239.714844 193.804688 242.765625 191.28125 L 242.765625 114.917969 C 242.765625 110.816406 246.078125 107.34375 250.339844 107.34375 C 254.441406 107.34375 257.910156 110.816406 257.910156 114.917969 Z M 211.578125 -0.152344 C 240.242188 -0.152344 266.273438 11.417969 284.996094 30.246094 C 303.71875 48.96875 315.394531 75 315.394531 103.664062 C 315.394531 132.21875 303.71875 158.199219 284.996094 176.921875 C 280.472656 181.445312 275.582031 185.546875 270.269531 189.28125 L 270.269531 173.765625 C 272.269531 172.03125 274.265625 170.191406 276.265625 168.191406 C 292.726562 151.730469 303.085938 128.90625 303.085938 103.664062 C 303.085938 78.3125 292.726562 55.488281 276.265625 39.027344 C 259.699219 22.464844 236.820312 12.207031 211.632812 12.207031 C 186.441406 12.207031 163.5625 22.410156 147.101562 39.027344 C 130.535156 55.488281 120.28125 78.3125 120.28125 103.664062 C 120.28125 128.90625 130.484375 151.730469 147.101562 168.191406 C 148.679688 169.925781 150.414062 171.503906 152.152344 172.976562 L 152.152344 188.648438 C 147.261719 185.179688 142.578125 181.339844 138.214844 176.976562 C 119.492188 158.199219 107.921875 132.167969 107.921875 103.664062 C 107.921875 75 119.492188 48.96875 138.160156 30.246094 C 157.042969 11.417969 182.917969 -0.152344 211.578125 -0.152344 Z M 227.25 216.734375 L 227.25 116.8125 C 227.25 108.027344 219.941406 100.769531 211.210938 100.769531 C 202.480469 100.769531 195.171875 108.082031 195.171875 116.8125 L 195.171875 216.785156 C 189.175781 221.414062 185.492188 228.722656 185.492188 236.980469 C 185.492188 251.339844 197.0625 262.855469 211.261719 262.855469 C 225.460938 262.855469 237.03125 251.285156 237.03125 236.980469 C 236.925781 228.671875 233.089844 221.414062 227.25 216.734375 Z M 186.386719 97.929688 C 192.488281 91.042969 201.375 86.625 211.210938 86.625 C 221.042969 86.625 229.933594 90.988281 235.875 97.929688 C 239.976562 94.984375 244.921875 93.304688 250.339844 93.304688 C 250.496094 93.304688 250.757812 93.304688 250.863281 93.304688 L 211.210938 27.039062 L 171.398438 93.25 C 171.660156 93.25 171.820312 93.25 172.082031 93.25 C 177.34375 93.304688 182.390625 95.039062 186.386719 97.929688 Z M 186.386719 97.929688 " fill-opacity="1" fill-rule="nonzero"/></g><g fill="#302616" fill-opacity="1"><g transform="translate(334.145806, 156.631438)"><g><path d="M 17.6875 0 L 5 0 L 5 -49.9375 L 17.6875 -49.9375 Z M 17.6875 0 "/></g></g></g><g fill="#302616" fill-opacity="1"><g transform="translate(379.577315, 156.631438)"><g><path d="M 51.078125 0 L 39.875 0 L 16.90625 -30.75 L 16.90625 0 L 5 0 L 5 -49.9375 L 16.1875 -49.9375 L 39.234375 -19.109375 L 39.234375 -49.9375 L 51.078125 -49.9375 Z M 51.078125 0 "/></g></g></g><g fill="#302616" fill-opacity="1"><g transform="translate(458.387096, 156.631438)"><g><path d="M 24.1875 -50.5 C 31.644531 -50.5 38.203125 -48.644531 43.859375 -44.9375 L 39.09375 -35.015625 C 36.476562 -36.535156 33.671875 -37.785156 30.671875 -38.765625 C 27.671875 -39.742188 25.148438 -40.234375 23.109375 -40.234375 C 19.453125 -40.234375 17.625 -39.019531 17.625 -36.59375 C 17.625 -35.019531 18.523438 -33.757812 20.328125 -32.8125 C 22.128906 -31.863281 24.328125 -31.039062 26.921875 -30.34375 C 29.515625 -29.65625 32.109375 -28.820312 34.703125 -27.84375 C 37.296875 -26.875 39.492188 -25.296875 41.296875 -23.109375 C 43.109375 -20.921875 44.015625 -18.164062 44.015625 -14.84375 C 44.015625 -10.03125 42.132812 -6.28125 38.375 -3.59375 C 34.613281 -0.914062 29.832031 0.421875 24.03125 0.421875 C 19.894531 0.421875 15.804688 -0.289062 11.765625 -1.71875 C 7.722656 -3.144531 4.207031 -5.09375 1.21875 -7.5625 L 6.140625 -17.328125 C 8.660156 -15.140625 11.628906 -13.34375 15.046875 -11.9375 C 18.472656 -10.539062 21.519531 -9.84375 24.1875 -9.84375 C 26.226562 -9.84375 27.816406 -10.207031 28.953125 -10.9375 C 30.097656 -11.675781 30.671875 -12.757812 30.671875 -14.1875 C 30.671875 -15.570312 30.015625 -16.726562 28.703125 -17.65625 C 27.398438 -18.582031 25.773438 -19.269531 23.828125 -19.71875 C 21.878906 -20.175781 19.757812 -20.785156 17.46875 -21.546875 C 15.1875 -22.304688 13.070312 -23.132812 11.125 -24.03125 C 9.175781 -24.9375 7.546875 -26.375 6.234375 -28.34375 C 4.929688 -30.320312 4.28125 -32.691406 4.28125 -35.453125 C 4.28125 -40.015625 6.097656 -43.660156 9.734375 -46.390625 C 13.367188 -49.128906 18.1875 -50.5 24.1875 -50.5 Z M 24.1875 -50.5 "/></g></g></g><g fill="#302616" fill-opacity="1"><g transform="translate(527.069287, 156.631438)"><g><path d="M 5 -49.9375 L 26.75 -49.9375 C 33.125 -49.9375 38.066406 -48.425781 41.578125 -45.40625 C 45.097656 -42.382812 46.859375 -38.09375 46.859375 -32.53125 C 46.859375 -26.675781 45.097656 -22.128906 41.578125 -18.890625 C 38.066406 -15.660156 33.125 -14.046875 26.75 -14.046875 L 17.6875 -14.046875 L 17.6875 0 L 5 0 Z M 17.6875 -39.9375 L 17.6875 -24.03125 L 26.109375 -24.03125 C 28.910156 -24.03125 31.070312 -24.71875 32.59375 -26.09375 C 34.113281 -27.476562 34.875 -29.476562 34.875 -32.09375 C 34.875 -34.664062 34.113281 -36.613281 32.59375 -37.9375 C 31.070312 -39.269531 28.910156 -39.9375 26.109375 -39.9375 Z M 17.6875 -39.9375 "/></g></g></g><g fill="#302616" fill-opacity="1"><g transform="translate(598.319015, 156.631438)"><g><path d="M 17.6875 0 L 5 0 L 5 -49.9375 L 17.6875 -49.9375 Z M 17.6875 0 "/></g></g></g><g fill="#302616" fill-opacity="1"><g transform="translate(643.75054, 156.631438)"><g><path d="M 17.6875 -10.625 L 38.875 -10.625 L 38.875 0 L 5 0 L 5 -49.9375 L 17.6875 -49.9375 Z M 17.6875 -10.625 "/></g></g></g><g fill="#302616" fill-opacity="1"><g transform="translate(706.44178, 156.631438)"><g><path d="M 28.671875 -50.359375 C 36.421875 -50.359375 42.863281 -47.941406 48 -43.109375 C 53.132812 -38.285156 55.703125 -32.257812 55.703125 -25.03125 C 55.703125 -17.757812 53.125 -11.671875 47.96875 -6.765625 C 42.8125 -1.867188 36.378906 0.578125 28.671875 0.578125 C 20.972656 0.578125 14.554688 -1.859375 9.421875 -6.734375 C 4.285156 -11.609375 1.71875 -17.707031 1.71875 -25.03125 C 1.71875 -32.3125 4.285156 -38.351562 9.421875 -43.15625 C 14.554688 -47.957031 20.972656 -50.359375 28.671875 -50.359375 Z M 28.8125 -39.734375 C 24.914062 -39.734375 21.585938 -38.316406 18.828125 -35.484375 C 16.066406 -32.648438 14.6875 -29.140625 14.6875 -24.953125 C 14.6875 -20.773438 16.078125 -17.25 18.859375 -14.375 C 21.640625 -11.5 24.957031 -10.0625 28.8125 -10.0625 C 32.664062 -10.0625 35.9375 -11.5 38.625 -14.375 C 41.3125 -17.25 42.65625 -20.773438 42.65625 -24.953125 C 42.65625 -29.140625 41.3125 -32.648438 38.625 -35.484375 C 35.9375 -38.316406 32.664062 -39.734375 28.8125 -39.734375 Z M 28.8125 -39.734375 "/></g></g></g><g fill="#302616" fill-opacity="1"><g transform="translate(786.606646, 156.631438)"><g><path d="M 38.15625 -25.390625 L 49.140625 -25.390625 L 49.140625 -5.921875 C 46.429688 -4.015625 43.160156 -2.453125 39.328125 -1.234375 C 35.503906 -0.0234375 31.859375 0.578125 28.390625 0.578125 C 20.773438 0.578125 14.425781 -1.859375 9.34375 -6.734375 C 4.257812 -11.609375 1.71875 -17.6875 1.71875 -24.96875 C 1.71875 -32.195312 4.332031 -38.234375 9.5625 -43.078125 C 14.789062 -47.929688 21.351562 -50.359375 29.25 -50.359375 C 32.957031 -50.359375 36.640625 -49.691406 40.296875 -48.359375 C 43.960938 -47.023438 47.078125 -45.21875 49.640625 -42.9375 L 42.515625 -34.3125 C 40.703125 -35.976562 38.609375 -37.296875 36.234375 -38.265625 C 33.859375 -39.242188 31.503906 -39.734375 29.171875 -39.734375 C 25.078125 -39.734375 21.640625 -38.316406 18.859375 -35.484375 C 16.078125 -32.648438 14.6875 -29.144531 14.6875 -24.96875 C 14.6875 -20.726562 16.085938 -17.179688 18.890625 -14.328125 C 21.703125 -11.484375 25.175781 -10.0625 29.3125 -10.0625 C 31.976562 -10.0625 34.925781 -10.867188 38.15625 -12.484375 Z M 38.15625 -25.390625 "/></g></g></g><g fill="#302616" fill-opacity="1"><g transform="translate(862.349592, 156.631438)"><g><path d="M 44.078125 -39.9375 L 17.6875 -39.9375 L 17.6875 -30.03125 L 41.515625 -30.03125 L 41.515625 -20.046875 L 17.6875 -20.046875 L 17.6875 -9.984375 L 44.859375 -9.984375 L 44.859375 0 L 5 0 L 5 -49.9375 L 44.078125 -49.9375 Z M 44.078125 -39.9375 "/></g></g></g><g fill="#302616" fill-opacity="1"><g transform="translate(933.171374, 156.631438)"><g><path d="M 35.09375 0 L 27.671875 -14.046875 L 17.6875 -14.046875 L 17.6875 0 L 5 0 L 5 -49.9375 L 27.3125 -49.9375 C 33.925781 -49.9375 39.039062 -48.425781 42.65625 -45.40625 C 46.269531 -42.382812 48.078125 -38.09375 48.078125 -32.53125 C 48.078125 -24.820312 45.054688 -19.472656 39.015625 -16.484375 L 49.5 0 Z M 17.6875 -24.03125 L 27.3125 -24.03125 C 30.070312 -24.03125 32.210938 -24.71875 33.734375 -26.09375 C 35.253906 -27.476562 36.015625 -29.476562 36.015625 -32.09375 C 36.015625 -34.664062 35.253906 -36.613281 33.734375 -37.9375 C 32.210938 -39.269531 30.070312 -39.9375 27.3125 -39.9375 L 17.6875 -39.9375 Z M 17.6875 -24.03125 "/></g></g></g></svg>