<svg xmlns="http://www.w3.org/2000/svg" xmlns:xlink="http://www.w3.org/1999/xlink" width="1080" zoomAndPan="magnify" viewBox="0 0 810 689.999997" height="920" preserveAspectRatio="xMidYMid meet" version="1.0"><defs><g/><clipPath id="a12f64879c"><path d="M 0 208.683594 L 216 208.683594 L 216 481.527344 L 0 481.527344 Z M 0 208.683594 " clip-rule="nonzero"/></clipPath></defs><g clip-path="url(#a12f64879c)"><path fill="#922b21" d="M 74.546875 406.480469 C 78.148438 409.097656 80.496094 413.246094 80.496094 417.886719 C 80.496094 425.582031 74.273438 431.804688 66.742188 431.804688 C 59.046875 431.804688 52.824219 425.582031 52.824219 417.886719 C 52.824219 413.191406 55.171875 409.042969 58.882812 406.480469 L 58.882812 327.941406 C 58.882812 323.6875 62.324219 320.082031 66.742188 320.082031 C 71 320.082031 74.601562 323.6875 74.601562 327.941406 L 74.601562 406.480469 Z M 155.8125 405.933594 C 159.960938 408.390625 162.691406 412.8125 162.691406 417.941406 C 162.691406 425.636719 156.46875 431.859375 148.9375 431.859375 C 141.242188 431.859375 135.019531 425.636719 135.019531 417.941406 C 135.019531 413.683594 136.929688 409.808594 140.09375 407.1875 L 140.09375 327.941406 C 140.09375 323.6875 143.535156 320.082031 147.953125 320.082031 C 152.210938 320.082031 155.8125 323.6875 155.8125 327.941406 Z M 107.730469 208.527344 C 137.476562 208.527344 164.492188 220.535156 183.921875 240.074219 C 203.351562 259.503906 215.464844 286.519531 215.464844 316.261719 C 215.464844 345.898438 203.351562 372.859375 183.921875 392.289062 C 179.226562 396.984375 174.152344 401.242188 168.640625 405.117188 L 168.640625 389.015625 C 170.714844 387.214844 172.785156 385.304688 174.859375 383.230469 C 191.945312 366.148438 202.695312 342.460938 202.695312 316.261719 C 202.695312 289.957031 191.945312 266.269531 174.859375 249.1875 C 157.667969 231.996094 133.929688 221.351562 107.785156 221.351562 C 81.644531 221.351562 57.902344 231.941406 40.820312 249.1875 C 23.625 266.269531 12.984375 289.957031 12.984375 316.261719 C 12.984375 342.460938 23.574219 366.148438 40.820312 383.230469 C 42.457031 385.03125 44.257812 386.667969 46.058594 388.195312 L 46.058594 404.460938 C 40.984375 400.859375 36.125 396.875 31.59375 392.34375 C 12.164062 372.859375 0.160156 345.84375 0.160156 316.261719 C 0.160156 286.519531 12.164062 259.503906 31.539062 240.074219 C 51.132812 220.535156 77.984375 208.527344 107.730469 208.527344 Z M 123.996094 433.605469 L 123.996094 329.90625 C 123.996094 320.792969 116.410156 313.261719 107.347656 313.261719 C 98.289062 313.261719 90.703125 320.847656 90.703125 329.90625 L 90.703125 433.660156 C 84.480469 438.460938 80.660156 446.046875 80.660156 454.617188 C 80.660156 469.515625 92.667969 481.46875 107.402344 481.46875 C 122.140625 481.46875 134.144531 469.460938 134.144531 454.617188 C 134.035156 445.992188 130.054688 438.460938 123.996094 433.605469 Z M 81.589844 310.3125 C 87.917969 303.164062 97.144531 298.582031 107.347656 298.582031 C 117.554688 298.582031 126.777344 303.109375 132.945312 310.3125 C 137.203125 307.257812 142.332031 305.511719 147.953125 305.511719 C 148.117188 305.511719 148.390625 305.511719 148.5 305.511719 L 107.347656 236.742188 L 66.035156 305.457031 C 66.304688 305.457031 66.46875 305.457031 66.742188 305.457031 C 72.199219 305.511719 77.441406 307.3125 81.589844 310.3125 Z M 81.589844 310.3125 " fill-opacity="1" fill-rule="nonzero"/></g><g fill="#302616" fill-opacity="1"><g transform="translate(225.531489, 380.129365)"><g><path d="M 15.5 0 L 4.375 0 L 4.375 -43.734375 L 15.5 -43.734375 Z M 15.5 0 "/></g></g></g><g fill="#302616" fill-opacity="1"><g transform="translate(265.335377, 380.129365)"><g><path d="M 44.734375 0 L 34.921875 0 L 14.8125 -26.9375 L 14.8125 0 L 4.375 0 L 4.375 -43.734375 L 14.1875 -43.734375 L 34.359375 -16.75 L 34.359375 -43.734375 L 44.734375 -43.734375 Z M 44.734375 0 "/></g></g></g><g fill="#302616" fill-opacity="1"><g transform="translate(334.382956, 380.129365)"><g><path d="M 21.1875 -44.234375 C 27.726562 -44.234375 33.472656 -42.609375 38.421875 -39.359375 L 34.234375 -30.6875 C 31.953125 -32.007812 29.5 -33.097656 26.875 -33.953125 C 24.25 -34.804688 22.039062 -35.234375 20.25 -35.234375 C 17.039062 -35.234375 15.4375 -34.171875 15.4375 -32.046875 C 15.4375 -30.679688 16.226562 -29.582031 17.8125 -28.75 C 19.394531 -27.914062 21.320312 -27.195312 23.59375 -26.59375 C 25.863281 -25.988281 28.128906 -25.257812 30.390625 -24.40625 C 32.660156 -23.550781 34.585938 -22.164062 36.171875 -20.25 C 37.753906 -18.332031 38.546875 -15.914062 38.546875 -13 C 38.546875 -8.789062 36.898438 -5.507812 33.609375 -3.15625 C 30.328125 -0.800781 26.144531 0.375 21.0625 0.375 C 17.4375 0.375 13.851562 -0.25 10.3125 -1.5 C 6.769531 -2.75 3.6875 -4.457031 1.0625 -6.625 L 5.375 -15.1875 C 7.582031 -13.269531 10.1875 -11.695312 13.1875 -10.46875 C 16.1875 -9.238281 18.851562 -8.625 21.1875 -8.625 C 22.976562 -8.625 24.375 -8.945312 25.375 -9.59375 C 26.375 -10.238281 26.875 -11.1875 26.875 -12.4375 C 26.875 -13.644531 26.300781 -14.65625 25.15625 -15.46875 C 24.007812 -16.28125 22.582031 -16.882812 20.875 -17.28125 C 19.164062 -17.675781 17.3125 -18.207031 15.3125 -18.875 C 13.3125 -19.539062 11.457031 -20.269531 9.75 -21.0625 C 8.039062 -21.851562 6.613281 -23.113281 5.46875 -24.84375 C 4.320312 -26.570312 3.75 -28.640625 3.75 -31.046875 C 3.75 -35.046875 5.34375 -38.242188 8.53125 -40.640625 C 11.71875 -43.035156 15.9375 -44.234375 21.1875 -44.234375 Z M 21.1875 -44.234375 "/></g></g></g><g fill="#302616" fill-opacity="1"><g transform="translate(394.557453, 380.129365)"><g><path d="M 4.375 -43.734375 L 23.4375 -43.734375 C 29.007812 -43.734375 33.335938 -42.410156 36.421875 -39.765625 C 39.503906 -37.117188 41.046875 -33.363281 41.046875 -28.5 C 41.046875 -23.375 39.503906 -19.394531 36.421875 -16.5625 C 33.335938 -13.726562 29.007812 -12.3125 23.4375 -12.3125 L 15.5 -12.3125 L 15.5 0 L 4.375 0 Z M 15.5 -34.984375 L 15.5 -21.0625 L 22.875 -21.0625 C 25.332031 -21.0625 27.226562 -21.664062 28.5625 -22.875 C 29.894531 -24.082031 30.5625 -25.832031 30.5625 -28.125 C 30.5625 -30.363281 29.894531 -32.066406 28.5625 -33.234375 C 27.226562 -34.398438 25.332031 -34.984375 22.875 -34.984375 Z M 15.5 -34.984375 "/></g></g></g><g fill="#302616" fill-opacity="1"><g transform="translate(456.981446, 380.129365)"><g><path d="M 15.5 0 L 4.375 0 L 4.375 -43.734375 L 15.5 -43.734375 Z M 15.5 0 "/></g></g></g><g fill="#302616" fill-opacity="1"><g transform="translate(496.785348, 380.129365)"><g><path d="M 15.5 -9.3125 L 34.046875 -9.3125 L 34.046875 0 L 4.375 0 L 4.375 -43.734375 L 15.5 -43.734375 Z M 15.5 -9.3125 "/></g></g></g><g fill="#302616" fill-opacity="1"><g transform="translate(551.710996, 380.129365)"><g><path d="M 25.125 -44.109375 C 31.90625 -44.109375 37.546875 -41.992188 42.046875 -37.765625 C 46.546875 -33.535156 48.796875 -28.257812 48.796875 -21.9375 C 48.796875 -15.5625 46.535156 -10.226562 42.015625 -5.9375 C 37.492188 -1.644531 31.859375 0.5 25.109375 0.5 C 18.367188 0.5 12.75 -1.632812 8.25 -5.90625 C 3.75 -10.175781 1.5 -15.519531 1.5 -21.9375 C 1.5 -28.300781 3.75 -33.585938 8.25 -37.796875 C 12.75 -42.003906 18.375 -44.109375 25.125 -44.109375 Z M 25.25 -34.796875 C 21.832031 -34.796875 18.914062 -33.554688 16.5 -31.078125 C 14.082031 -28.609375 12.875 -25.539062 12.875 -21.875 C 12.875 -18.207031 14.09375 -15.113281 16.53125 -12.59375 C 18.96875 -10.070312 21.875 -8.8125 25.25 -8.8125 C 28.625 -8.8125 31.484375 -10.070312 33.828125 -12.59375 C 36.179688 -15.113281 37.359375 -18.207031 37.359375 -21.875 C 37.359375 -25.539062 36.179688 -28.609375 33.828125 -31.078125 C 31.484375 -33.554688 28.625 -34.796875 25.25 -34.796875 Z M 25.25 -34.796875 "/></g></g></g><g fill="#302616" fill-opacity="1"><g transform="translate(621.945804, 380.129365)"><g><path d="M 33.421875 -22.25 L 43.046875 -22.25 L 43.046875 -5.1875 C 40.671875 -3.519531 37.804688 -2.15625 34.453125 -1.09375 C 31.109375 -0.03125 27.914062 0.5 24.875 0.5 C 18.207031 0.5 12.644531 -1.632812 8.1875 -5.90625 C 3.726562 -10.175781 1.5 -15.5 1.5 -21.875 C 1.5 -28.195312 3.789062 -33.484375 8.375 -37.734375 C 12.957031 -41.984375 18.707031 -44.109375 25.625 -44.109375 C 28.875 -44.109375 32.097656 -43.523438 35.296875 -42.359375 C 38.503906 -41.191406 41.234375 -39.609375 43.484375 -37.609375 L 37.234375 -30.0625 C 35.648438 -31.507812 33.816406 -32.660156 31.734375 -33.515625 C 29.660156 -34.367188 27.601562 -34.796875 25.5625 -34.796875 C 21.976562 -34.796875 18.96875 -33.554688 16.53125 -31.078125 C 14.09375 -28.609375 12.875 -25.539062 12.875 -21.875 C 12.875 -18.164062 14.101562 -15.0625 16.5625 -12.5625 C 19.019531 -10.0625 22.0625 -8.8125 25.6875 -8.8125 C 28.019531 -8.8125 30.597656 -9.519531 33.421875 -10.9375 Z M 33.421875 -22.25 "/></g></g></g><g fill="#302616" fill-opacity="1"><g transform="translate(688.306438, 380.129365)"><g><path d="M 38.609375 -34.984375 L 15.5 -34.984375 L 15.5 -26.3125 L 36.359375 -26.3125 L 36.359375 -17.5625 L 15.5 -17.5625 L 15.5 -8.75 L 39.296875 -8.75 L 39.296875 0 L 4.375 0 L 4.375 -43.734375 L 38.609375 -43.734375 Z M 38.609375 -34.984375 "/></g></g></g><g fill="#302616" fill-opacity="1"><g transform="translate(750.355495, 380.129365)"><g><path d="M 30.75 0 L 24.25 -12.3125 L 15.5 -12.3125 L 15.5 0 L 4.375 0 L 4.375 -43.734375 L 23.9375 -43.734375 C 29.71875 -43.734375 34.191406 -42.410156 37.359375 -39.765625 C 40.523438 -37.117188 42.109375 -33.363281 42.109375 -28.5 C 42.109375 -21.75 39.460938 -17.0625 34.171875 -14.4375 L 43.359375 0 Z M 15.5 -21.0625 L 23.9375 -21.0625 C 26.351562 -21.0625 28.222656 -21.664062 29.546875 -22.875 C 30.878906 -24.082031 31.546875 -25.832031 31.546875 -28.125 C 31.546875 -30.363281 30.878906 -32.066406 29.546875 -33.234375 C 28.222656 -34.398438 26.351562 -34.984375 23.9375 -34.984375 L 15.5 -34.984375 Z M 15.5 -21.0625 "/></g></g></g></svg>